<svg width="141" height="34" viewBox="0 0 141 34" fill="none" xmlns="http://www.w3.org/2000/svg">
<rect width="141" height="34" rx="8" fill="#1D1D24"/>
<path d="M16.2 22.126C15.0707 22.126 14.2027 21.692 13.596 20.824C12.9893 19.9467 12.686 18.6913 12.686 17.058C12.686 15.3967 12.9893 14.1413 13.596 13.292C14.2027 12.4333 15.0707 12.004 16.2 12.004C17.3387 12.004 18.2067 12.4333 18.804 13.292C19.4107 14.1413 19.714 15.392 19.714 17.044C19.714 18.6867 19.4107 19.9467 18.804 20.824C18.1973 21.692 17.3293 22.126 16.2 22.126ZM16.2 21.02C16.9467 21.02 17.502 20.698 17.866 20.054C18.2393 19.41 18.426 18.4067 18.426 17.044C18.426 15.6813 18.2393 14.6873 17.866 14.062C17.502 13.4273 16.9467 13.11 16.2 13.11C15.4627 13.11 14.9073 13.4273 14.534 14.062C14.1607 14.6873 13.974 15.6813 13.974 17.044C13.974 18.4067 14.1607 19.41 14.534 20.054C14.9073 20.698 15.4627 21.02 16.2 21.02ZM20.4785 22L23.6705 18.052V18.682L20.6605 14.958H22.1865L24.3845 17.772H23.9225L26.1205 14.958H27.6325L24.6645 18.654V18.08L27.8145 22H26.2745L23.9225 18.99H24.3845L22.0045 22H20.4785ZM29.1177 22V21.034L32.5617 17.422C33.0097 16.9647 33.3411 16.526 33.5557 16.106C33.7797 15.686 33.8917 15.252 33.8917 14.804C33.8917 14.2533 33.7191 13.838 33.3737 13.558C33.0377 13.2687 32.5431 13.124 31.8897 13.124C31.3857 13.124 30.9097 13.2173 30.4617 13.404C30.0231 13.5813 29.6031 13.8567 29.2017 14.23L28.7397 13.236C29.1224 12.8627 29.6031 12.564 30.1817 12.34C30.7697 12.116 31.3857 12.004 32.0297 12.004C33.0377 12.004 33.8171 12.2373 34.3677 12.704C34.9184 13.1613 35.1937 13.8193 35.1937 14.678C35.1937 15.3033 35.0397 15.9007 34.7317 16.47C34.4331 17.03 33.9897 17.6087 33.4017 18.206L30.3917 21.258V20.894H35.5997V22H29.1177ZM40.5223 22.126C39.3836 22.126 38.5016 21.8833 37.8763 21.398C37.2509 20.9127 36.9383 20.236 36.9383 19.368C36.9383 18.6867 37.1483 18.122 37.5683 17.674C37.9976 17.2167 38.5529 16.9413 39.2343 16.848V17.072C38.6089 16.9413 38.1096 16.6567 37.7363 16.218C37.3723 15.7793 37.1903 15.252 37.1903 14.636C37.1903 13.8147 37.4843 13.1707 38.0723 12.704C38.6696 12.2373 39.4863 12.004 40.5223 12.004C41.5676 12.004 42.3843 12.2373 42.9723 12.704C43.5696 13.1707 43.8683 13.8147 43.8683 14.636C43.8683 15.252 43.6909 15.784 43.3363 16.232C42.9909 16.68 42.5103 16.96 41.8943 17.072V16.848C42.5756 16.9413 43.1123 17.2167 43.5043 17.674C43.9056 18.122 44.1063 18.6867 44.1063 19.368C44.1063 20.236 43.7936 20.9127 43.1683 21.398C42.5523 21.8833 41.6703 22.126 40.5223 22.126ZM40.5223 21.076C41.3156 21.076 41.9036 20.9267 42.2863 20.628C42.6783 20.3293 42.8743 19.886 42.8743 19.298C42.8743 18.7007 42.6783 18.2573 42.2863 17.968C41.9036 17.6787 41.3156 17.534 40.5223 17.534C39.7383 17.534 39.1503 17.6787 38.7583 17.968C38.3663 18.2573 38.1703 18.7007 38.1703 19.298C38.1703 19.886 38.3663 20.3293 38.7583 20.628C39.1503 20.9267 39.7383 21.076 40.5223 21.076ZM40.5223 16.47C41.2036 16.47 41.7216 16.3207 42.0763 16.022C42.4403 15.714 42.6223 15.2893 42.6223 14.748C42.6223 14.216 42.4403 13.8007 42.0763 13.502C41.7216 13.2033 41.2036 13.054 40.5223 13.054C39.8503 13.054 39.3323 13.2033 38.9683 13.502C38.6043 13.8007 38.4223 14.216 38.4223 14.748C38.4223 15.2893 38.6043 15.714 38.9683 16.022C39.3323 16.3207 39.8503 16.47 40.5223 16.47ZM46.2008 22L51.0588 12.718V13.25H45.5988V12.13H52.2488V13.096L47.6428 22H46.2008ZM53.9653 22V20.446H55.5193V22H53.9653ZM57.2329 22V20.446H58.7869V22H57.2329ZM60.5005 22V20.446H62.0545V22H60.5005ZM67.0441 22.126C66.3721 22.126 65.7281 22.0233 65.1121 21.818C64.5054 21.6127 63.9967 21.3233 63.5861 20.95L64.0481 19.942C64.5054 20.3153 64.9767 20.586 65.4621 20.754C65.9474 20.922 66.4607 21.006 67.0021 21.006C67.7207 21.006 68.2667 20.8567 68.6401 20.558C69.0134 20.25 69.2001 19.8113 69.2001 19.242C69.2001 18.682 69.0087 18.2573 68.6261 17.968C68.2527 17.6787 67.7021 17.534 66.9741 17.534H65.4621V16.456H66.8761C67.4921 16.456 67.9867 16.2973 68.3601 15.98C68.7334 15.6627 68.9201 15.2287 68.9201 14.678C68.9201 14.174 68.7474 13.7913 68.4021 13.53C68.0661 13.2593 67.5854 13.124 66.9601 13.124C65.9054 13.124 64.9907 13.4927 64.2161 14.23L63.7541 13.236C64.1461 12.844 64.6314 12.5407 65.2101 12.326C65.7887 12.1113 66.4001 12.004 67.0441 12.004C68.0241 12.004 68.7941 12.228 69.3541 12.676C69.9141 13.124 70.1941 13.7493 70.1941 14.552C70.1941 15.1587 70.0214 15.6813 69.6761 16.12C69.3401 16.5493 68.8781 16.834 68.2901 16.974V16.82C68.9807 16.9413 69.5174 17.226 69.9001 17.674C70.2827 18.1127 70.4741 18.6633 70.4741 19.326C70.4741 20.194 70.1661 20.88 69.5501 21.384C68.9434 21.8787 68.1081 22.126 67.0441 22.126ZM74.8366 22.126C74.3139 22.126 73.7913 22.0187 73.2686 21.804C72.7459 21.5893 72.3119 21.3047 71.9666 20.95L72.4426 19.956C72.7879 20.3013 73.1659 20.5627 73.5766 20.74C73.9966 20.9173 74.4213 21.006 74.8506 21.006C75.7653 21.006 76.4699 20.6793 76.9646 20.026C77.4593 19.3633 77.7066 18.3833 77.7066 17.086V15.84H77.8466C77.7906 16.3533 77.6273 16.8013 77.3566 17.184C77.0953 17.5573 76.7639 17.8467 76.3626 18.052C75.9613 18.2573 75.5039 18.36 74.9906 18.36C74.4026 18.36 73.8799 18.2247 73.4226 17.954C72.9653 17.6833 72.6059 17.3147 72.3446 16.848C72.0833 16.372 71.9526 15.8307 71.9526 15.224C71.9526 14.5987 72.0879 14.0433 72.3586 13.558C72.6386 13.0727 73.0213 12.6947 73.5066 12.424C73.9919 12.144 74.5519 12.004 75.1866 12.004C76.3999 12.004 77.3333 12.4287 77.9866 13.278C78.6399 14.118 78.9666 15.3033 78.9666 16.834C78.9666 17.9633 78.7986 18.9247 78.4626 19.718C78.1359 20.502 77.6646 21.0993 77.0486 21.51C76.4326 21.9207 75.6953 22.126 74.8366 22.126ZM75.2706 17.282C75.6813 17.282 76.0406 17.1933 76.3486 17.016C76.6659 16.8387 76.9133 16.5913 77.0906 16.274C77.2679 15.9567 77.3566 15.5927 77.3566 15.182C77.3566 14.762 77.2679 14.398 77.0906 14.09C76.9133 13.7727 76.6659 13.5253 76.3486 13.348C76.0406 13.1613 75.6813 13.068 75.2706 13.068C74.8599 13.068 74.4959 13.1613 74.1786 13.348C73.8706 13.5253 73.6279 13.7727 73.4506 14.09C73.2826 14.398 73.1986 14.762 73.1986 15.182C73.1986 15.5927 73.2826 15.9567 73.4506 16.274C73.6279 16.5913 73.8706 16.8387 74.1786 17.016C74.4959 17.1933 74.8599 17.282 75.2706 17.282ZM81.1871 22L86.0451 12.718V13.25H80.5851V12.13H87.2351V13.096L82.6291 22H81.1871ZM92.2277 22.126C91.5557 22.126 90.9117 22.0233 90.2957 21.818C89.689 21.6127 89.1803 21.3233 88.7697 20.95L89.2317 19.942C89.689 20.3153 90.1603 20.586 90.6457 20.754C91.131 20.922 91.6443 21.006 92.1857 21.006C92.9043 21.006 93.4503 20.8567 93.8237 20.558C94.197 20.25 94.3837 19.8113 94.3837 19.242C94.3837 18.682 94.1923 18.2573 93.8097 17.968C93.4363 17.6787 92.8857 17.534 92.1577 17.534H90.6457V16.456H92.0597C92.6757 16.456 93.1703 16.2973 93.5437 15.98C93.917 15.6627 94.1037 15.2287 94.1037 14.678C94.1037 14.174 93.931 13.7913 93.5857 13.53C93.2497 13.2593 92.769 13.124 92.1437 13.124C91.089 13.124 90.1743 13.4927 89.3997 14.23L88.9377 13.236C89.3297 12.844 89.815 12.5407 90.3937 12.326C90.9723 12.1113 91.5837 12.004 92.2277 12.004C93.2077 12.004 93.9777 12.228 94.5377 12.676C95.0977 13.124 95.3777 13.7493 95.3777 14.552C95.3777 15.1587 95.205 15.6813 94.8597 16.12C94.5237 16.5493 94.0617 16.834 93.4737 16.974V16.82C94.1643 16.9413 94.701 17.226 95.0837 17.674C95.4663 18.1127 95.6577 18.6633 95.6577 19.326C95.6577 20.194 95.3497 20.88 94.7337 21.384C94.127 21.8787 93.2917 22.126 92.2277 22.126ZM100.244 22.126C99.6282 22.126 99.0869 21.9813 98.6202 21.692C98.1535 21.4027 97.7895 20.9827 97.5282 20.432C97.2669 19.8813 97.1362 19.228 97.1362 18.472C97.1362 17.716 97.2669 17.0673 97.5282 16.526C97.7895 15.9753 98.1535 15.5553 98.6202 15.266C99.0869 14.9767 99.6282 14.832 100.244 14.832C100.86 14.832 101.397 14.986 101.854 15.294C102.321 15.602 102.634 16.0267 102.792 16.568H102.624V11.696H103.898V22H102.638V20.362H102.792C102.643 20.9127 102.335 21.3467 101.868 21.664C101.411 21.972 100.87 22.126 100.244 22.126ZM100.538 21.118C101.173 21.118 101.682 20.894 102.064 20.446C102.456 19.998 102.652 19.34 102.652 18.472C102.652 17.604 102.456 16.9507 102.064 16.512C101.682 16.0733 101.173 15.854 100.538 15.854C99.9035 15.854 99.3902 16.0733 98.9982 16.512C98.6155 16.9507 98.4242 17.604 98.4242 18.472C98.4242 19.34 98.6155 19.998 98.9982 20.446C99.3902 20.894 99.9035 21.118 100.538 21.118Z" fill="#FCD15A"/>
<g clip-path="url(#clip0_234_289)">
<mask id="mask0_234_289" style="mask-type:alpha" maskUnits="userSpaceOnUse" x="113" y="9" width="16" height="16">
<path d="M129 17C129 12.5817 125.418 9 121 9C116.582 9 113 12.5817 113 17C113 21.4183 116.582 25 121 25C125.418 25 129 21.4183 129 17Z" fill="white"/>
</mask>
<g mask="url(#mask0_234_289)">
<path d="M129 9H113V25H129V9Z" fill="#827085"/>
<path d="M125.076 27.2392C129.013 25.2333 130.578 20.4159 128.572 16.4792C126.567 12.5425 121.749 10.9772 117.812 12.9831C113.876 14.9889 112.311 19.8064 114.316 23.7431C116.322 27.6798 121.14 29.2451 125.076 27.2392Z" fill="#CCFC8E"/>
<path d="M115.646 18.8832C115.623 19.3246 115.835 19.7602 116.235 20.0941C116.634 20.4281 117.19 20.633 117.778 20.6639C118.367 20.6947 118.941 20.5489 119.373 20.2586C119.806 19.9683 120.062 19.5572 120.085 19.1158" fill="black"/>
<path d="M115.517 17.0962C115.53 16.851 115.392 16.6445 115.208 16.6349C115.024 16.6252 114.865 16.8161 114.852 17.0613C114.839 17.3064 114.978 17.5129 115.161 17.5225C115.345 17.5322 115.505 17.3413 115.517 17.0962Z" fill="black"/>
<path d="M120.844 17.3753C120.856 17.1302 120.718 16.9237 120.534 16.914C120.35 16.9044 120.191 17.0953 120.178 17.3404C120.165 17.5855 120.304 17.7921 120.487 17.8017C120.671 17.8113 120.831 17.6204 120.844 17.3753Z" fill="black"/>
</g>
</g>
<defs>
<clipPath id="clip0_234_289">
<rect width="16" height="16" fill="white" transform="translate(113 9)"/>
</clipPath>
</defs>
</svg>
