<svg width="158" height="64" viewBox="0 0 158 64" fill="none" xmlns="http://www.w3.org/2000/svg">
<g clip-path="url(#clip0_203_112)">
<path d="M13.332 22.3618C12.1819 22.475 11.1215 23.0327 10.3765 23.9161C9.63149 24.7995 9.26082 25.9389 9.34342 27.0915C9.3628 27.3983 9.29693 27.7045 9.15308 27.9762C9.00923 28.2478 8.79303 28.4744 8.52839 28.6308C8.26013 28.7946 7.95169 28.8809 7.63735 28.8799C7.33958 28.8733 7.04861 28.7896 6.79276 28.6371C6.08751 28.1912 5.27075 27.9534 4.43637 27.9509C4.26266 27.9541 4.08927 27.9668 3.91695 27.9889C2.82868 28.16 1.84307 28.73 1.15209 29.588C0.461107 30.446 0.114248 31.5304 0.179076 32.6301C0.243905 33.7299 0.715778 34.7661 1.50278 35.5369C2.28978 36.3078 3.33554 36.758 4.43637 36.8001C4.5774 36.8034 4.7185 36.7971 4.85866 36.7811C5.88741 36.6825 6.8494 36.2276 7.57843 35.4951C8.30746 34.7626 8.75773 33.7985 8.85144 32.7693C8.87045 32.5346 8.87045 32.2987 8.85144 32.064C8.83178 31.757 8.89777 31.4505 9.04204 31.1787C9.18632 30.9069 9.40322 30.6805 9.66858 30.5248C9.93046 30.363 10.2328 30.2788 10.5406 30.282C10.8397 30.2797 11.133 30.364 11.3852 30.5248C12.0962 30.9708 12.9192 31.2058 13.7585 31.2026C13.9315 31.212 14.1049 31.212 14.2779 31.2026C15.3895 31.0568 16.4045 30.4954 17.1188 29.6314C17.8331 28.7674 18.1937 27.6649 18.1278 26.5457C18.062 25.4266 17.5747 24.374 16.764 23.5997C15.9533 22.8253 14.8795 22.3868 13.7585 22.3724C13.6179 22.3631 13.4768 22.3631 13.3362 22.3724" fill="#FCD15A"/>
<path d="M22.6647 27.9636C21.5143 28.0767 20.4535 28.6347 19.7085 29.5186C18.9634 30.4025 18.593 31.5424 18.6762 32.6954C18.6912 32.997 18.625 33.2971 18.4847 33.5645C18.3443 33.8318 18.1348 34.0567 17.878 34.2156L17.859 34.2346C17.591 34.3981 17.2819 34.4817 16.968 34.4753C16.6706 34.4682 16.3799 34.3853 16.1234 34.2346C15.4336 33.7935 14.6345 33.5533 13.8158 33.5407C12.9971 33.5282 12.1911 33.7439 11.4881 34.1637C10.7851 34.5835 10.2129 35.1908 9.83556 35.9175C9.45827 36.6442 9.2908 37.4616 9.35192 38.2781C9.37131 38.5849 9.30543 38.891 9.16159 39.1627C9.01774 39.4344 8.80154 39.6609 8.5369 39.8173C8.26663 39.9842 7.95503 40.072 7.63741 40.0707C7.33964 40.0641 7.04867 39.9804 6.79283 39.8279C6.08757 39.382 5.27082 39.1442 4.43643 39.1417C4.26273 39.1449 4.08933 39.1576 3.91701 39.1797C2.82013 39.3396 1.82293 39.9045 1.12191 40.7632C0.420886 41.6218 0.0668912 42.7119 0.129684 43.8186C0.192477 44.9253 0.667502 45.9683 1.46115 46.7421C2.2548 47.516 3.3095 47.9645 4.41743 47.9993C4.55846 48.0023 4.69953 47.9959 4.83972 47.9803C5.86594 47.8809 6.82493 47.4252 7.5501 46.6923C8.27527 45.9595 8.7208 44.9957 8.80928 43.9685C8.82828 43.7345 8.82828 43.4994 8.80928 43.2654C8.7928 42.9611 8.86031 42.6581 9.00443 42.3896C9.14855 42.1211 9.36372 41.8974 9.62642 41.743L9.64542 41.724C9.91508 41.5612 10.2258 41.4791 10.5407 41.4875C10.8394 41.4857 11.1324 41.5692 11.3853 41.7282C12.09 42.1753 12.9071 42.4132 13.7417 42.4144C13.9085 42.4144 14.0753 42.3976 14.2421 42.3976C15.3823 42.2825 16.4317 41.724 17.164 40.8424C17.8963 39.9608 18.2528 38.8268 18.1567 37.6848C18.1443 37.454 18.1794 37.2231 18.2597 37.0064C18.3401 36.7898 18.4641 36.5919 18.624 36.425C18.7839 36.2582 18.9764 36.1259 19.1895 36.0364C19.4025 35.947 19.6317 35.9021 19.8628 35.9048C20.1615 35.903 20.4545 35.9865 20.7074 36.1455C21.4123 36.5922 22.2293 36.8302 23.0638 36.8317C23.2375 36.8285 23.4109 36.8158 23.5832 36.7937C24.6948 36.648 25.7098 36.0866 26.4241 35.2226C27.1384 34.3585 27.499 33.256 27.4331 32.1369C27.3673 31.0178 26.88 29.9651 26.0693 29.1908C25.2586 28.4165 24.1848 27.978 23.0638 27.9636C22.9286 27.9445 22.7914 27.9445 22.6563 27.9636" fill="#FCD15A"/>
<path d="M7.6414 23.7913L7.45348 22.8728H7.47248C7.54788 22.8427 7.6165 22.7979 7.67435 22.7409C7.73219 22.684 7.77809 22.616 7.80936 22.5411C7.84062 22.4662 7.85663 22.3858 7.85643 22.3046C7.85623 22.2234 7.83984 22.1431 7.80821 22.0684L8.51977 21.5996C8.55778 21.6376 8.59578 21.6566 8.61479 21.6925L7.7343 23.8124C7.70481 23.8003 7.67329 23.7939 7.6414 23.7934V23.7913ZM7.65829 20.4341L8.36986 20.9028C8.31502 21.0543 8.31502 21.2201 8.36986 21.3716L7.65829 21.8382C7.55024 21.7322 7.40778 21.6683 7.25672 21.6582C7.10566 21.6482 6.95599 21.6925 6.83482 21.7833L6.46109 21.4455C6.52454 21.352 6.55847 21.2417 6.55847 21.1288C6.55847 21.0158 6.52454 20.9055 6.46109 20.812L6.83482 20.4742C6.94488 20.5531 7.07539 20.5986 7.21066 20.6051C7.2931 20.6115 7.37593 20.5997 7.45328 20.5705C7.53064 20.5413 7.60063 20.4955 7.65829 20.4362V20.4341ZM5.84243 18.9012L5.95434 18.8441L6.72291 19.6317C6.65941 19.7149 6.61894 19.8133 6.6056 19.9171C6.59226 20.0209 6.6065 20.1264 6.6469 20.2229C6.6659 20.2588 6.6659 20.2778 6.68491 20.3158L6.31751 20.6452C6.21354 20.5649 6.08668 20.5197 5.95533 20.5163C5.82398 20.5129 5.69495 20.5514 5.58694 20.6262L4.9535 19.9928C5.02833 19.8848 5.06682 19.7557 5.0634 19.6244C5.05999 19.493 5.01484 19.3662 4.9345 19.2622L5.29134 18.8505C5.37323 18.905 5.4672 18.9387 5.56509 18.9487C5.66298 18.9586 5.76181 18.9445 5.85299 18.9075L5.84243 18.9012ZM7.78287 20.2377C7.81418 20.1626 7.83028 20.0821 7.83021 20.0007C7.83015 19.9194 7.81394 19.8389 7.78251 19.7638C7.75108 19.6888 7.70507 19.6207 7.64714 19.5636C7.5892 19.5065 7.52051 19.4615 7.44503 19.4311H7.41547L7.60339 18.4768C7.64169 18.4798 7.68014 18.4732 7.7153 18.4577L8.57678 20.6262C8.53877 20.6452 8.50288 20.6811 8.46487 20.7001L7.78287 20.2377ZM1.52659 18.5485C1.6026 18.5126 1.82642 18.3986 1.86443 18.2128L2.70901 18.3796C2.70596 18.5061 2.73348 18.6314 2.78925 18.7449L2.02279 19.5029C1.92025 19.4302 1.79799 19.3904 1.67228 19.3889L1.52659 18.5485ZM6.10636 18.6773C6.18303 18.561 6.22209 18.4239 6.21827 18.2846L7.04385 18.0967C7.07302 18.1701 7.11747 18.2366 7.17426 18.2915C7.23105 18.3465 7.29888 18.3888 7.37324 18.4155L7.19166 19.3783C7.10892 19.381 7.02674 19.393 6.94673 19.4142C6.91354 19.4294 6.88234 19.4485 6.85382 19.4713L6.10636 18.6773ZM4.66423 17.1993L5.14987 17.9003C5.04893 18.008 4.98967 18.1481 4.9827 18.2956C4.97574 18.443 5.02153 18.5881 5.11186 18.7048L4.75714 19.1271C4.66037 19.0729 4.55132 19.0444 4.44042 19.0444C4.32951 19.0444 4.22046 19.0729 4.1237 19.1271L3.80064 18.7449C3.89141 18.6237 3.93578 18.4741 3.9257 18.323C3.91563 18.1719 3.85179 18.0295 3.74574 17.9214L4.20604 17.2183C4.26686 17.2384 4.33003 17.2504 4.39396 17.2542C4.4842 17.2552 4.57356 17.2365 4.65579 17.1993H4.66423ZM1.88343 17.9848V17.8729L3.89566 16.9924C3.93155 17.0304 3.96956 17.0853 4.00757 17.1233L3.53882 17.8349C3.46355 17.8026 3.38256 17.7857 3.30067 17.7853C3.21877 17.7849 3.13762 17.8009 3.06202 17.8324C2.98642 17.8639 2.9179 17.9103 2.86053 17.9687C2.80316 18.0272 2.7581 18.0965 2.72802 18.1727L1.88343 17.9848ZM4.83948 17.0684C4.87136 17.0356 4.89647 16.9969 4.91338 16.9544L6.99318 17.742V17.8729L6.16971 18.084C6.13778 18.01 6.09157 17.9431 6.03372 17.887C5.97587 17.8309 5.90753 17.7868 5.8326 17.7572C5.75766 17.7276 5.67762 17.713 5.59706 17.7144C5.5165 17.7158 5.43701 17.733 5.36313 17.7652H5.34412L4.83948 17.0684ZM4.38974 16.0127C4.247 16.015 4.10943 16.0665 4.00021 16.1584C3.89098 16.2503 3.81677 16.3771 3.79008 16.5173C3.77103 16.6043 3.77103 16.6943 3.79008 16.7812L1.79686 17.6491C1.77181 17.6066 1.74048 17.5682 1.70395 17.535C1.58192 17.4542 1.43564 17.418 1.28998 17.4328C1.14433 17.4476 1.00829 17.5124 0.905019 17.6162C0.801745 17.72 0.737605 17.8563 0.723508 18.002C0.709411 18.1478 0.746227 18.2939 0.827695 18.4155C0.846698 18.4345 0.865702 18.4535 0.884705 18.4535C0.384889 19.0973 0.0780967 19.8698 0 20.6811V21.1309C0 22.3181 0.47161 23.4566 1.31108 24.2961C2.15055 25.1356 3.28912 25.6072 4.47631 25.6072C4.62608 25.6036 4.77552 25.5916 4.92394 25.5713C5.75963 25.4818 6.55267 25.1567 7.21066 24.6338C7.21066 24.6528 7.22755 24.6528 7.22755 24.6718C7.32695 24.7712 7.46177 24.827 7.60234 24.827C7.74291 24.827 7.87772 24.7712 7.97712 24.6718C8.07652 24.5724 8.13237 24.4376 8.13237 24.297C8.13237 24.1564 8.07652 24.0216 7.97712 23.9222C7.95584 23.8992 7.93086 23.88 7.90322 23.8652L8.7837 21.7537C8.94 21.7859 9.10268 21.7564 9.23775 21.6715C9.37283 21.5865 9.46985 21.4526 9.50855 21.2978C9.54725 21.143 9.52464 20.9792 9.44544 20.8407C9.36624 20.7022 9.23657 20.5996 9.08353 20.5544H9.06242C9.01372 20.5406 8.96306 20.5349 8.9125 20.5375C8.8744 20.5347 8.83615 20.5404 8.8006 20.5544L7.93912 18.3775C8.02694 18.3447 8.10639 18.2929 8.17174 18.2257C8.2371 18.1585 8.28672 18.0776 8.31703 17.9889C8.34735 17.9002 8.35759 17.8059 8.34704 17.7127C8.33648 17.6196 8.30538 17.5299 8.25599 17.4503C8.20659 17.3706 8.14013 17.3029 8.0614 17.252C7.98266 17.2011 7.89362 17.1684 7.80069 17.1561C7.70776 17.1438 7.61326 17.1523 7.52401 17.1809C7.43475 17.2096 7.35297 17.2577 7.28456 17.3218C7.19654 17.372 7.12362 17.4449 7.07342 17.5329L4.99995 16.7306C5.0158 16.6517 5.01568 16.5705 4.99959 16.4917C4.98351 16.4129 4.9518 16.3381 4.90633 16.2718C4.86086 16.2055 4.80256 16.1489 4.73486 16.1055C4.66717 16.0621 4.59146 16.0327 4.51221 16.019C4.47631 16.019 4.4383 16 4.4003 16L4.38974 16.0127Z" fill="#FCD15A"/>
</g>
<path d="M46.2564 30.224C46.2564 29.776 46.0804 29.3867 45.7284 29.056C45.3871 28.7253 44.9018 28.56 44.2724 28.56C43.7391 28.56 43.3178 28.672 43.0084 28.896C42.6991 29.1093 42.5444 29.4027 42.5444 29.776C42.5444 29.968 42.5818 30.144 42.6564 30.304C42.7311 30.4533 42.8591 30.592 43.0404 30.72C43.2324 30.8373 43.4778 30.944 43.7764 31.04C44.0858 31.136 44.4751 31.2267 44.9444 31.312C46.1178 31.5253 47.0138 31.8827 47.6324 32.384C48.2511 32.8853 48.5604 33.6267 48.5604 34.608V34.8C48.5604 35.3227 48.4644 35.7973 48.2724 36.224C48.0911 36.64 47.8244 36.9973 47.4724 37.296C47.1204 37.5947 46.6938 37.824 46.1924 37.984C45.6911 38.144 45.1258 38.224 44.4964 38.224C43.7604 38.224 43.1098 38.1227 42.5444 37.92C41.9898 37.7067 41.5258 37.4187 41.1524 37.056C40.7791 36.6827 40.4964 36.2507 40.3044 35.76C40.1124 35.2587 40.0164 34.7147 40.0164 34.128V33.648H42.1284V34.032C42.1284 34.704 42.3204 35.2427 42.7044 35.648C43.0991 36.0427 43.7071 36.24 44.5284 36.24C45.1684 36.24 45.6431 36.1013 45.9524 35.824C46.2618 35.5467 46.4164 35.216 46.4164 34.832C46.4164 34.6507 46.3844 34.48 46.3204 34.32C46.2564 34.1493 46.1444 34 45.9844 33.872C45.8244 33.7333 45.6058 33.6107 45.3284 33.504C45.0511 33.3973 44.6991 33.3067 44.2724 33.232C43.7071 33.136 43.1898 33.0133 42.7204 32.864C42.2511 32.704 41.8404 32.496 41.4884 32.24C41.1471 31.984 40.8804 31.664 40.6884 31.28C40.4964 30.896 40.4004 30.4267 40.4004 29.872V29.776C40.4004 29.3173 40.4911 28.896 40.6724 28.512C40.8644 28.1173 41.1258 27.776 41.4564 27.488C41.7978 27.2 42.2031 26.976 42.6724 26.816C43.1524 26.656 43.6858 26.576 44.2724 26.576C44.9338 26.576 45.5204 26.672 46.0324 26.864C46.5444 27.0453 46.9711 27.296 47.3124 27.616C47.6644 27.936 47.9258 28.304 48.0964 28.72C48.2778 29.136 48.3684 29.5733 48.3684 30.032V30.608H46.2564V30.224ZM52.2613 34.688C52.272 34.9227 52.3253 35.1413 52.4213 35.344C52.528 35.536 52.6666 35.7067 52.8373 35.856C53.0186 35.9947 53.2213 36.1067 53.4453 36.192C53.68 36.2667 53.9253 36.304 54.1813 36.304C54.6826 36.304 55.0666 36.2187 55.3333 36.048C55.6 35.8667 55.792 35.6533 55.9093 35.408L57.6373 36.368C57.5413 36.5707 57.408 36.784 57.2373 37.008C57.0666 37.2213 56.8426 37.4187 56.5653 37.6C56.2986 37.7813 55.968 37.9307 55.5733 38.048C55.1893 38.1653 54.736 38.224 54.2133 38.224C53.616 38.224 53.072 38.128 52.5813 37.936C52.0906 37.744 51.664 37.4667 51.3013 37.104C50.9493 36.7413 50.672 36.2987 50.4693 35.776C50.2773 35.2533 50.1813 34.6613 50.1813 34V33.904C50.1813 33.296 50.2826 32.7413 50.4853 32.24C50.6986 31.7387 50.9866 31.312 51.3493 30.96C51.712 30.608 52.1333 30.336 52.6133 30.144C53.104 29.9413 53.6266 29.84 54.1813 29.84C54.864 29.84 55.4506 29.9627 55.9413 30.208C56.432 30.4427 56.8373 30.7467 57.1573 31.12C57.4773 31.4827 57.712 31.888 57.8613 32.336C58.0106 32.7733 58.0853 33.2 58.0853 33.616V34.688H52.2613ZM54.1653 31.664C53.6533 31.664 53.2373 31.7973 52.9173 32.064C52.5973 32.32 52.3893 32.6187 52.2933 32.96H56.0373C55.9733 32.5867 55.7706 32.2773 55.4293 32.032C55.0986 31.7867 54.6773 31.664 54.1653 31.664ZM68.0262 35.088C67.8448 36.0267 67.4128 36.784 66.7302 37.36C66.0582 37.936 65.1568 38.224 64.0262 38.224C63.4395 38.224 62.8902 38.1333 62.3782 37.952C61.8768 37.7707 61.4395 37.5093 61.0662 37.168C60.6928 36.8267 60.3995 36.4053 60.1862 35.904C59.9728 35.4027 59.8662 34.832 59.8662 34.192V34C59.8662 33.36 59.9728 32.784 60.1862 32.272C60.3995 31.76 60.6928 31.3227 61.0662 30.96C61.4502 30.5973 61.8928 30.32 62.3942 30.128C62.9062 29.936 63.4502 29.84 64.0262 29.84C65.1355 29.84 66.0315 30.128 66.7142 30.704C67.4075 31.28 67.8448 32.0373 68.0262 32.976L66.0422 33.488C65.9782 33.0187 65.7755 32.6133 65.4342 32.272C65.0928 31.9307 64.6128 31.76 63.9942 31.76C63.7062 31.76 63.4342 31.8133 63.1782 31.92C62.9222 32.0267 62.6982 32.1813 62.5062 32.384C62.3142 32.576 62.1595 32.816 62.0422 33.104C61.9355 33.3813 61.8822 33.696 61.8822 34.048V34.144C61.8822 34.496 61.9355 34.8107 62.0422 35.088C62.1595 35.3547 62.3142 35.5787 62.5062 35.76C62.6982 35.9413 62.9222 36.08 63.1782 36.176C63.4342 36.2613 63.7062 36.304 63.9942 36.304C64.6128 36.304 65.0822 36.1493 65.4022 35.84C65.7328 35.5307 65.9462 35.1147 66.0422 34.592L68.0262 35.088ZM69.6951 30.064H73.0551V31.216H73.3431C73.4924 30.7787 73.7431 30.4427 74.0951 30.208C74.4577 29.9627 74.8897 29.84 75.3911 29.84C76.1804 29.84 76.8151 30.0907 77.2951 30.592C77.7751 31.0827 78.0151 31.8347 78.0151 32.848V33.2L75.9351 33.392V33.168C75.9351 32.7307 75.8231 32.384 75.5991 32.128C75.3751 31.8613 75.0391 31.728 74.5911 31.728C74.1431 31.728 73.7911 31.8827 73.5351 32.192C73.2791 32.5013 73.1511 32.944 73.1511 33.52V36.08H74.9751V38H69.5031V36.08H71.1351V31.984H69.6951V30.064ZM81.6519 34.688C81.6626 34.9227 81.7159 35.1413 81.8119 35.344C81.9186 35.536 82.0573 35.7067 82.2279 35.856C82.4093 35.9947 82.6119 36.1067 82.8359 36.192C83.0706 36.2667 83.3159 36.304 83.5719 36.304C84.0733 36.304 84.4573 36.2187 84.7239 36.048C84.9906 35.8667 85.1826 35.6533 85.2999 35.408L87.0279 36.368C86.9319 36.5707 86.7986 36.784 86.6279 37.008C86.4573 37.2213 86.2333 37.4187 85.9559 37.6C85.6893 37.7813 85.3586 37.9307 84.9639 38.048C84.5799 38.1653 84.1266 38.224 83.6039 38.224C83.0066 38.224 82.4626 38.128 81.9719 37.936C81.4813 37.744 81.0546 37.4667 80.6919 37.104C80.3399 36.7413 80.0626 36.2987 79.8599 35.776C79.6679 35.2533 79.5719 34.6613 79.5719 34V33.904C79.5719 33.296 79.6733 32.7413 79.8759 32.24C80.0893 31.7387 80.3773 31.312 80.7399 30.96C81.1026 30.608 81.5239 30.336 82.0039 30.144C82.4946 29.9413 83.0173 29.84 83.5719 29.84C84.2546 29.84 84.8413 29.9627 85.3319 30.208C85.8226 30.4427 86.2279 30.7467 86.5479 31.12C86.8679 31.4827 87.1026 31.888 87.2519 32.336C87.4013 32.7733 87.4759 33.2 87.4759 33.616V34.688H81.6519ZM83.5559 31.664C83.0439 31.664 82.6279 31.7973 82.3079 32.064C81.9879 32.32 81.7799 32.6187 81.6839 32.96H85.4279C85.3639 32.5867 85.1613 32.2773 84.8199 32.032C84.4893 31.7867 84.0679 31.664 83.5559 31.664ZM89.4488 30.064H91.8008V26.8H93.8168V30.064H96.6808V31.984H93.8168V35.6C93.8168 35.92 93.9608 36.08 94.2488 36.08H96.3928V38H93.0328C92.6701 38 92.3715 37.8827 92.1368 37.648C91.9128 37.4133 91.8008 37.1147 91.8008 36.752V31.984H89.4488V30.064ZM109.331 26.8H116.403V28.816H111.443V31.376H116.211V33.392H111.443V35.984H116.595V38H109.331V26.8ZM127.031 38H125.015V32.432C125.015 32.208 124.957 32.0427 124.839 31.936C124.733 31.8187 124.589 31.76 124.407 31.76C124.194 31.76 124.023 31.824 123.895 31.952C123.778 32.08 123.719 32.272 123.719 32.528V38H121.703V32.432C121.703 32.208 121.639 32.0427 121.511 31.936C121.394 31.8187 121.25 31.76 121.079 31.76C120.887 31.76 120.727 31.824 120.599 31.952C120.471 32.08 120.407 32.272 120.407 32.528V38H118.391V30.064H120.407V30.832H120.695C120.759 30.544 120.903 30.3093 121.127 30.128C121.362 29.936 121.666 29.84 122.039 29.84C122.391 29.84 122.69 29.936 122.935 30.128C123.181 30.3093 123.346 30.544 123.431 30.832H123.719C123.805 30.544 123.981 30.3093 124.247 30.128C124.525 29.936 124.866 29.84 125.271 29.84C125.805 29.84 126.231 30.0213 126.551 30.384C126.871 30.736 127.031 31.2267 127.031 31.856V38ZM133.996 36.848C133.783 37.3493 133.484 37.7067 133.1 37.92C132.716 38.1227 132.268 38.224 131.756 38.224C131.276 38.224 130.823 38.1333 130.396 37.952C129.98 37.7707 129.612 37.504 129.292 37.152C128.972 36.8 128.716 36.3733 128.524 35.872C128.343 35.3707 128.252 34.8 128.252 34.16V33.904C128.252 33.2747 128.343 32.7093 128.524 32.208C128.706 31.7067 128.951 31.28 129.26 30.928C129.57 30.576 129.927 30.3093 130.332 30.128C130.748 29.936 131.191 29.84 131.66 29.84C132.226 29.84 132.679 29.936 133.02 30.128C133.372 30.32 133.65 30.6187 133.852 31.024H134.14V30.064H136.156V35.6C136.156 35.92 136.3 36.08 136.588 36.08H136.892V38H135.516C135.154 38 134.855 37.8933 134.62 37.68C134.396 37.4667 134.284 37.1893 134.284 36.848H133.996ZM132.204 36.304C132.791 36.304 133.26 36.112 133.612 35.728C133.964 35.3333 134.14 34.8 134.14 34.128V33.936C134.14 33.264 133.964 32.736 133.612 32.352C133.26 31.9573 132.791 31.76 132.204 31.76C131.618 31.76 131.148 31.9573 130.796 32.352C130.444 32.736 130.268 33.264 130.268 33.936V34.128C130.268 34.8 130.444 35.3333 130.796 35.728C131.148 36.112 131.618 36.304 132.204 36.304ZM138.801 36.08H141.489V31.984H138.993V30.064H143.505V36.08H145.809V38H138.801V36.08ZM144.001 27.712C144.001 27.9253 143.959 28.128 143.873 28.32C143.799 28.5013 143.692 28.6613 143.553 28.8C143.415 28.928 143.249 29.0347 143.057 29.12C142.876 29.1947 142.684 29.232 142.481 29.232C142.268 29.232 142.071 29.1947 141.889 29.12C141.708 29.0347 141.548 28.928 141.409 28.8C141.271 28.6613 141.159 28.5013 141.073 28.32C140.999 28.128 140.961 27.9253 140.961 27.712C140.961 27.4987 140.999 27.3013 141.073 27.12C141.159 26.928 141.271 26.768 141.409 26.64C141.548 26.5013 141.708 26.3947 141.889 26.32C142.071 26.2347 142.268 26.192 142.481 26.192C142.684 26.192 142.876 26.2347 143.057 26.32C143.249 26.3947 143.415 26.5013 143.553 26.64C143.692 26.768 143.799 26.928 143.873 27.12C143.959 27.3013 144.001 27.4987 144.001 27.712ZM148.406 36.08H151.19V28.72H148.502V26.8H153.206V36.08H155.798V38H148.406V36.08Z" fill="white"/>
<defs>
<clipPath id="clip0_203_112">
<rect width="27.4405" height="32" fill="white" transform="translate(0 16)"/>
</clipPath>
</defs>
</svg>
